<svg xmlns="http://www.w3.org/2000/svg" width="400" height="260" viewBox="0 0 400 260" role="img" aria-label="Illustration Reste / Pas bouger">
  <rect width="400" height="260" fill="#fff0e0"/>
  <g transform="translate(160,140)">
      <ellipse cx="0" cy="88" rx="85" ry="9" fill="#c2570a" opacity="0.12"/>
      <path d="M 62 20 Q 100 10 95 -30" stroke="#c2570a" stroke-width="15" stroke-linecap="round" fill="none"/>
      <path d="M 40 45 Q 70 40 68 75 Q 66 88 50 88" fill="#e8660f"/>
      <ellipse cx="10" cy="40" rx="52" ry="46" fill="#f97316"/>
      <path d="M -35 55 Q -40 75 -38 88" stroke="#c2570a" stroke-width="15" stroke-linecap="round" fill="none"/>
      <path d="M -15 60 Q -18 78 -16 88" stroke="#c2570a" stroke-width="15" stroke-linecap="round" fill="none"/>
      <g transform="translate(-45,-25) rotate(0) scale(1)">
    <ellipse cx="0" cy="0" rx="38" ry="33" fill="#f97316"/>
    <path d="M 10 -28 C 40 -30 50 0 26 26 C 16 32 4 16 10 -6 Z" fill="#c2570a"/>
    <ellipse cx="-30" cy="12" rx="18" ry="13" fill="#ffd9ad"/>
    <ellipse cx="-43" cy="10" rx="5.5" ry="4.5" fill="#3a2417"/>
    <path d="M -30 20 Q -28 26 -20 23" stroke="#3a2417" stroke-width="3" stroke-linecap="round" fill="none"/>
    <circle cx="-8" cy="-6" r="4.5" fill="#3a2417"/>
    <circle cx="-9" cy="-7.3" r="1.4" fill="#fff"/>
  </g>
    </g>
    <!-- main levee, signal "stop" -->
    <g transform="translate(285,110)">
      <path d="M -18 40 L -18 -10 Q -18 -20 -10 -20 Q -2 -20 -2 -10 L -2 -22 Q -2 -32 6 -32 Q 14 -32 14 -22 L 14 -12 Q 14 -22 22 -22 Q 30 -22 30 -12 L 30 20 Q 30 40 12 46 L -6 46 Q -18 46 -18 34 Z" fill="#ffd9ad" stroke="#c2570a" stroke-width="3"/>
    </g>
  <text x="200" y="245" text-anchor="middle" font-family="Arial, sans-serif" font-size="18" font-weight="700" fill="#c2570a">Reste / Pas bouger</text>
</svg>